PathFileType  4	(X/Y/Z) C:\Users\antoi\Documents\MyRepositories\mobilecap\ResultsAnalysis
DataRate	CameraRate	NumFrames	NumMarkers	Units	OrigDataRate	OrigDataStartFrame	OrigNumFrames
100.0	100.0	7	51	mm	100.0	50	132
Frame#	Time	r_knee			r_shank_antsup			r_ankle			r_calc			r_5meta			r_toe			L_knee			L_shank_antsup			L_ankle			L_calc			L_5meta			L_toe			r_sh2			r_sh3			r_sh4			L_sh2			L_sh3			r_thigh1			r_thigh2			r_thigh3			r_thigh4			r_thigh5			L_thigh1			L_thigh2			L_thigh3			L_thigh4			r.ASIS			r.PSIS			L.ASIS			L.PSIS			C7			R_Shoulder			L_Shoulder			R_Sternum			L_Sternum			R_humerus			R_elbow_med			R_elbow_lat			R_forearm			R_wrist_radius			R_wrist_ulna			L_humerus			L_elbow_med			L_elbow_lat			L_forearm			L_wrist_radius			L_wrist_ulna			R_HJC			L_HJC			R_HJC_reg			L_HJC_reg			
		X1	Y1	Z1	X2	Y2	Z2	X3	Y3	Z3	X4	Y4	Z4	X5	Y5	Z5	X6	Y6	Z6	X7	Y7	Z7	X8	Y8	Z8	X9	Y9	Z9	X10	Y10	Z10	X11	Y11	Z11	X12	Y12	Z12	X13	Y13	Z13	X14	Y14	Z14	X15	Y15	Z15	X16	Y16	Z16	X17	Y17	Z17	X18	Y18	Z18	X19	Y19	Z19	X20	Y20	Z20	X21	Y21	Z21	X22	Y22	Z22	X23	Y23	Z23	X24	Y24	Z24	X25	Y25	Z25	X26	Y26	Z26	X27	Y27	Z27	X28	Y28	Z28	X29	Y29	Z29	X30	Y30	Z30	X31	Y31	Z31	X32	Y32	Z32	X33	Y33	Z33	X34	Y34	Z34	X35	Y35	Z35	X36	Y36	Z36	X37	Y37	Z37	X38	Y38	Z38	X39	Y39	Z39	X40	Y40	Z40	X41	Y41	Z41	X42	Y42	Z42	X43	Y43	Z43	X44	Y44	Z44	X45	Y45	Z45	X46	Y46	Z46	X47	Y47	Z47	X48	Y48	Z48	X49	Y49	Z49	X50	Y50	Z50	X51	Y51	Z51	

50	0.49000000	263.88371	488.64909	-50.02588	291.69803	436.61984	-62.68601	167.57831	94.39729	-123.97628	106.45311	64.18090	-173.81882	292.18290	35.05937	-86.20371	332.05860	58.72418	-142.23551	511.73474	508.19348	-329.19990	558.02566	436.39951	-336.36895	578.18515	113.03679	-292.37499	527.43303	61.92446	-240.33623	708.83872	83.98957	-313.55352	745.53209	117.27295	-262.55234	271.91426	326.18713	-85.35249	223.24505	440.56955	-27.66693	201.24194	327.12017	-37.22020	469.88941	426.27193	-351.95698	494.35569	306.44078	-345.69668	427.59611	763.84512	-92.04233	405.01037	651.33080	-91.79740	383.71099	633.18265	-31.53301	357.83681	770.85765	0.08879	340.09738	656.99706	-5.00924	430.62365	818.68535	-352.39315	484.93273	687.41290	-356.99676	325.98224	775.84136	-357.92513	376.27191	651.10666	-343.69667	429.13000	949.65415	-58.38269	236.64277	989.48631	-133.36633	432.34209	939.39051	-293.76771	233.25813	983.43950	-231.30084	303.87672	1456.08090	-190.93212	379.52179	1427.65415	-38.54771	348.47668	1401.97573	-355.33571	414.73356	1358.59946	-182.23814	413.17130	1353.84012	-219.35883	436.30706	1209.96539	59.46848	390.55995	1104.68137	58.44159	436.56700	1122.41015	99.11548	551.49211	1031.09279	82.00026	623.37658	961.52106	43.67333	605.78607	943.84123	84.21600	280.41134	1176.26777	-431.29575	217.47043	1086.14869	-380.14612	233.01153	1087.53506	-439.31796	266.17037	948.44602	-465.92592	285.41057	840.11464	-450.08804	245.15544	839.85532	-469.92533	352.14841	869.91920	-90.50431	340.90559	871.71929	-280.83677	358.68353	883.79894	-84.56214	353.32414	874.21762	-239.68925	
51	0.50000000	269.69623	488.25367	-49.73382	296.60376	435.73319	-62.30942	168.11096	95.40756	-123.82392	106.75159	64.83856	-174.00854	292.13804	35.07091	-86.11800	332.35356	58.57223	-142.08348	523.83979	504.38040	-330.30611	573.38990	435.22475	-336.53531	611.37145	113.51805	-289.79315	563.17231	60.23189	-237.54632	743.43102	90.79748	-309.89250	778.34695	126.26130	-259.15295	275.38991	325.60456	-85.00991	228.14071	440.67034	-27.50625	204.54058	327.54706	-37.13274	486.10530	420.28809	-352.79355	516.95685	301.90421	-345.33934	438.40802	761.21285	-91.28760	414.11447	649.01799	-91.24289	392.04228	631.16244	-31.18793	368.24350	769.03318	0.46019	348.80820	655.56088	-4.76220	444.18057	815.03094	-352.45320	497.12505	683.21474	-357.77115	339.18753	773.30503	-358.37248	388.38680	647.97451	-344.09531	441.63790	947.41145	-57.65906	249.57127	986.82417	-134.05640	446.08852	936.62844	-293.46417	246.61810	980.26037	-231.97377	316.86117	1453.40094	-190.99595	392.14708	1425.02333	-38.58822	361.90909	1399.35553	-355.30180	427.64107	1355.85806	-182.07749	426.21039	1351.12477	-219.20448	451.30070	1208.63668	59.76893	407.65834	1102.45135	58.59541	453.06700	1121.19587	99.57005	570.51303	1033.00779	81.64879	644.27685	965.83060	42.68288	627.08695	947.62089	82.99065	291.23480	1174.61834	-431.63936	227.20499	1085.26110	-380.61105	242.56366	1086.46590	-439.73847	274.28551	946.97248	-466.77859	292.44811	838.50451	-451.30235	252.12444	838.66731	-470.85788	365.00237	867.48012	-90.23448	354.76597	868.75608	-280.62791	371.38587	881.66204	-83.88705	366.70170	871.24010	-239.28743	
52	0.51000000	276.49374	487.57542	-49.56796	302.47729	434.49891	-62.11825	168.73902	96.41189	-123.67114	107.06939	65.60652	-174.11747	292.09762	35.06627	-86.04588	332.66918	58.36056	-141.93945	536.20365	500.70328	-331.40914	588.35216	433.92065	-336.83644	641.94677	114.46375	-287.19655	596.11210	59.34381	-234.67542	775.00806	97.44154	-306.36632	808.16191	134.79539	-255.86028	279.57901	324.75187	-84.83663	234.06275	440.52452	-27.40831	208.67877	327.80146	-37.07555	501.97977	414.79489	-353.47807	538.33346	297.97275	-344.85520	449.48827	758.52373	-90.55285	423.76929	646.59632	-90.65303	400.99248	629.03260	-30.78729	378.92697	766.98582	0.71479	358.03195	653.92616	-4.50708	457.91294	811.52265	-352.62727	509.74557	679.26558	-358.72901	352.64489	770.71457	-358.98287	400.93569	644.90751	-344.48436	454.21982	944.99760	-57.07329	262.54745	984.03477	-134.78439	459.83560	933.74329	-293.33396	260.01092	976.96599	-232.67153	329.86063	1450.64126	-191.12298	404.81950	1422.21021	-38.65663	375.38062	1396.58454	-355.34728	440.62201	1352.93225	-181.97710	439.28910	1348.22862	-219.12836	466.07046	1206.99730	59.93899	424.39138	1099.98866	58.56187	469.19308	1119.65746	99.89660	588.99116	1034.64163	81.27245	664.56541	969.91965	41.73973	647.81638	951.15540	81.71777	302.48533	1172.68937	-432.00508	237.38086	1084.09882	-381.14327	252.69255	1085.07221	-440.16294	282.90925	945.23756	-467.62485	299.98451	836.63682	-452.48110	259.61833	837.23961	-471.82598	377.92024	864.88428	-90.09097	368.60639	865.68263	-280.53425	384.12466	879.36997	-83.35418	380.09286	868.12191	-239.04665	
53	0.52000000	284.33917	486.57583	-49.54680	309.38010	432.88370	-62.12660	169.45927	97.35695	-123.57106	107.41935	66.53093	-174.13343	292.07054	35.04469	-85.98283	332.98574	58.07097	-141.80068	548.88543	497.30006	-332.35598	602.96154	432.48452	-337.18707	669.59286	115.44157	-284.71479	625.83137	58.80911	-231.88610	803.36334	103.37895	-303.16989	834.78479	142.32638	-252.84929	284.53710	323.61686	-84.83654	241.07167	440.10378	-27.38450	213.71197	327.86787	-37.05901	517.41869	409.90084	-353.82095	558.27367	294.58268	-344.13937	460.78286	755.81348	-89.87280	434.03402	644.08566	-90.06515	410.61898	626.81424	-30.37181	389.89245	764.73567	0.78159	367.82218	652.10334	-4.30525	471.75369	808.28060	-352.96460	522.80727	675.70855	-359.75603	366.32410	768.11383	-359.66523	413.95106	641.98221	-344.82572	466.88110	942.45773	-56.67592	275.57229	981.19660	-135.57853	473.59034	930.77928	-293.36055	273.45313	973.66552	-233.42103	342.89349	1447.86606	-191.32030	417.53873	1419.27798	-38.75918	388.85673	1393.71916	-355.49738	453.69064	1349.88439	-181.94874	452.41780	1345.21441	-219.14250	480.59551	1205.08812	59.97983	440.72557	1097.33058	58.36934	484.92833	1117.83431	100.09382	606.89083	1036.00327	80.86334	684.19489	973.77893	40.83821	667.95080	954.42166	80.42145	314.16797	1170.50020	-432.39188	248.05586	1082.63857	-381.70639	263.42194	1083.36884	-440.59463	292.06803	943.26437	-468.46826	308.05080	834.52780	-453.63774	267.64813	835.58871	-472.83634	390.88252	862.19342	-90.09769	382.41719	862.56891	-280.58174	396.89365	876.95833	-83.03397	393.51761	864.94978	-238.99759	
54	0.53000000	293.24695	485.24774	-49.68202	317.31961	430.88433	-62.33725	170.28193	98.24261	-123.55213	107.81460	67.67793	-174.04755	292.06711	35.02090	-85.91194	333.28544	57.69093	-141.66814	561.95297	494.26912	-333.01673	617.34333	430.89585	-337.48015	694.01648	116.03590	-282.45510	651.95606	58.21415	-229.30571	828.29793	108.03446	-300.46715	858.10109	148.26901	-250.28954	290.28623	322.21486	-85.00047	249.18447	439.41035	-27.44949	219.64886	327.76210	-37.09472	532.44232	405.68311	-353.71186	576.68365	291.64486	-343.13494	472.23315	753.11610	-89.27072	444.92362	641.51541	-89.54087	420.94735	624.53672	-30.00659	401.15313	762.33810	0.62352	378.21604	650.12187	-4.21992	485.62114	805.38269	-353.50978	536.26740	672.63160	-360.74684	380.15856	765.53585	-360.30038	427.41262	639.23747	-345.07785	479.63913	939.84358	-56.48151	288.66277	978.38015	-136.44599	487.36706	927.78724	-293.51440	286.96888	970.46323	-234.23220	355.98810	1445.13260	-191.59406	430.31030	1416.29909	-38.90583	402.30867	1390.82376	-355.76493	466.85762	1346.79189	-182.00519	465.61618	1342.16314	-219.25829	494.84969	1202.96393	59.89519	456.63281	1094.52519	58.03423	500.24858	1115.78024	100.15813	624.17602	1037.10775	80.41226	703.12010	977.40392	39.97062	687.42767	957.40232	79.13216	326.28088	1168.08767	-432.79380	259.28259	1080.87686	-382.26288	274.76192	1081.39080	-441.03472	301.79879	941.09003	-469.30719	316.67020	832.21128	-454.78447	276.23028	833.74735	-473.89201	403.88638	859.47033	-90.25707	396.20529	859.48545	-280.77459	409.70824	874.45446	-82.96001	407.00372	861.80707	-239.14963	
55	0.54000000	303.18804	483.61442	-49.97673	326.25286	428.52594	-62.73974	171.23724	99.12895	-123.61335	108.26844	69.13458	-173.85612	292.10072	35.01809	-85.81144	333.56448	57.21483	-141.54635	575.48894	491.65849	-333.30324	631.67633	429.12601	-337.60626	714.99730	115.90334	-280.49010	674.20110	57.26512	-227.01057	849.64757	110.86496	-298.36308	878.10395	152.05857	-248.30414	296.80826	320.58175	-85.30839	258.37838	438.47529	-27.62004	226.45412	327.53083	-37.19351	547.17168	402.18361	-353.14788	593.58849	289.06405	-341.86125	483.81179	750.45537	-88.76148	456.42321	638.92439	-89.15155	431.97112	622.22783	-29.76703	412.73733	759.86882	0.24773	389.23356	648.02014	-4.30229	499.45455	802.85724	-354.29325	550.05946	670.05897	-361.63525	394.07530	762.99619	-360.76621	441.27940	636.68102	-345.18248	492.51783	937.20606	-56.46952	301.85091	975.63649	-137.37203	501.19164	924.82601	-293.76414	300.58682	967.43992	-235.09639	369.17651	1442.48646	-191.94977	443.15142	1413.34908	-39.11214	415.71759	1387.96575	-356.15065	480.13334	1343.73920	-182.15968	478.90692	1339.16242	-219.48628	508.80815	1200.68853	59.69049	472.08413	1091.63068	57.56162	515.12393	1113.55746	100.08668	640.81169	1037.97130	79.91128	721.29676	980.78862	39.12936	706.15833	960.08519	77.87053	338.81510	1165.50457	-433.20197	271.09765	1078.83780	-382.78366	286.70646	1079.19177	-441.48050	312.13909	938.76461	-470.13716	325.86000	829.73583	-455.93163	285.38502	831.76281	-474.99261	416.95036	856.76853	-90.55509	409.99840	856.49796	-281.10032	422.60539	871.87981	-83.12530	420.58298	858.76417	-239.49288	
56	0.55000000	314.10101	481.72086	-50.42446	336.10195	425.85346	-63.30955	172.37112	100.12678	-123.72446	108.79894	71.00489	-173.56127	292.18596	35.05485	-85.66633	333.84384	56.64706	-141.43658	589.57633	489.46472	-333.17690	646.14059	427.15004	-337.47365	732.45761	114.82908	-278.85390	692.43138	55.85668	-225.02812	867.34947	111.44770	-296.88635	894.92235	153.24253	-246.93814	304.04718	318.76554	-85.73357	268.59715	437.34926	-27.91055	234.05911	327.24291	-37.36255	561.77218	399.40833	-352.22286	609.10255	286.75872	-340.41248	495.55899	747.84568	-88.36342	468.51108	636.35856	-88.96018	443.66208	619.90756	-29.72121	424.68729	757.39986	-0.30530	400.87852	645.83488	-4.58266	513.24193	800.68387	-355.32655	564.12119	667.95054	-362.40760	408.02360	760.49395	-360.96478	455.51239	634.30171	-345.06489	505.54406	934.59037	-56.60051	315.17907	972.99326	-138.32771	515.10218	921.96003	-294.08703	314.33718	964.64195	-235.99166	382.48449	1439.95901	-192.39324	456.08864	1410.49923	-39.39919	429.07907	1385.20873	-356.64849	493.52731	1340.80702	-182.42537	492.30767	1336.29211	-219.83603	522.45274	1198.32693	59.37257	487.04267	1088.71408	56.94989	529.52076	1111.22988	99.88099	656.76708	1038.60662	79.35633	738.68207	983.91786	38.30881	724.05205	962.45939	76.64062	351.75640	1162.81450	-433.60802	283.51975	1076.56901	-383.24929	299.23339	1076.83797	-441.92435	323.11568	936.34669	-470.95375	335.63417	827.15878	-457.08726	295.13446	829.69204	-476.13391	430.11482	854.12695	-90.97150	423.84345	853.66231	-281.53996	435.63880	869.25674	-83.49462	434.28941	855.87402	-240.00574	
